<svg xmlns="http://www.w3.org/2000/svg" xmlns:xlink="http://www.w3.org/1999/xlink" width="500" zoomAndPan="magnify" viewBox="0 0 375 374.999991" height="500" preserveAspectRatio="xMidYMid meet" version="1.0"><defs><clipPath id="6193dd7885"><path d="M 5.359375 5.359375 L 369.457031 5.359375 L 369.457031 369.457031 L 5.359375 369.457031 Z M 5.359375 5.359375 " clip-rule="nonzero"/></clipPath><clipPath id="13ae4aaf41"><path d="M 187.5 375 C 137.441406 375 90.304688 355.515625 54.929688 320.070312 C 19.484375 284.695312 0 237.558594 0 187.5 C 0 137.441406 19.484375 90.304688 54.929688 54.929688 C 90.304688 19.484375 137.441406 0 187.5 0 C 237.558594 0 284.695312 19.484375 320.070312 54.929688 C 355.515625 90.378906 375 137.441406 375 187.5 C 375 237.558594 355.515625 284.695312 320.070312 320.070312 C 284.695312 355.515625 237.558594 375 187.5 375 Z M 187.5 11.242188 C 140.4375 11.242188 96.148438 29.601562 62.875 62.875 C 29.601562 96.148438 11.242188 140.4375 11.242188 187.5 C 11.242188 234.5625 29.601562 278.851562 62.875 312.125 C 96.148438 345.398438 140.4375 363.757812 187.5 363.757812 C 234.5625 363.757812 278.851562 345.398438 312.125 312.125 C 345.398438 278.851562 363.757812 234.5625 363.757812 187.5 C 363.757812 140.4375 345.398438 96.148438 312.125 62.875 C 278.851562 29.601562 234.5625 11.242188 187.5 11.242188 Z M 187.5 11.242188 " clip-rule="nonzero"/></clipPath><clipPath id="868aaabba3"><path d="M 28.382812 28.382812 L 346.695312 28.382812 L 346.695312 346.695312 L 28.382812 346.695312 Z M 28.382812 28.382812 " clip-rule="nonzero"/></clipPath></defs><rect x="-37.5" width="450" fill="#ffffff" y="-37.499999" height="449.999989" fill-opacity="1"/><rect x="-37.5" width="450" fill="#ffffff" y="-37.499999" height="449.999989" fill-opacity="1"/><g clip-path="url(#6193dd7885)"><path fill="#ffffff" d="M 369.457031 187.40625 C 369.457031 190.386719 369.382812 193.363281 369.234375 196.339844 C 369.089844 199.316406 368.871094 202.285156 368.578125 205.25 C 368.285156 208.214844 367.921875 211.171875 367.484375 214.117188 C 367.046875 217.066406 366.539062 220 365.957031 222.921875 C 365.375 225.84375 364.722656 228.75 364 231.640625 C 363.277344 234.53125 362.480469 237.402344 361.617188 240.253906 C 360.75 243.101562 359.816406 245.929688 358.8125 248.738281 C 357.808594 251.542969 356.738281 254.320312 355.597656 257.074219 C 354.457031 259.824219 353.25 262.550781 351.976562 265.242188 C 350.703125 267.933594 349.363281 270.597656 347.960938 273.222656 C 346.554688 275.851562 345.085938 278.441406 343.554688 281 C 342.023438 283.554688 340.429688 286.070312 338.773438 288.546875 C 337.117188 291.023438 335.402344 293.460938 333.628906 295.851562 C 331.855469 298.246094 330.023438 300.59375 328.132812 302.898438 C 326.242188 305.199219 324.296875 307.457031 322.296875 309.664062 C 320.292969 311.871094 318.242188 314.027344 316.132812 316.132812 C 314.027344 318.242188 311.871094 320.292969 309.664062 322.296875 C 307.457031 324.296875 305.199219 326.242188 302.898438 328.132812 C 300.59375 330.023438 298.246094 331.855469 295.851562 333.628906 C 293.460938 335.402344 291.023438 337.117188 288.546875 338.773438 C 286.070312 340.429688 283.554688 342.023438 281 343.554688 C 278.441406 345.085938 275.851562 346.554688 273.222656 347.960938 C 270.597656 349.363281 267.933594 350.703125 265.242188 351.976562 C 262.550781 353.25 259.824219 354.457031 257.074219 355.597656 C 254.320312 356.738281 251.542969 357.808594 248.738281 358.8125 C 245.929688 359.816406 243.101562 360.75 240.253906 361.617188 C 237.402344 362.480469 234.53125 363.273438 231.640625 364 C 228.75 364.722656 225.84375 365.375 222.921875 365.957031 C 220 366.539062 217.066406 367.046875 214.117188 367.484375 C 211.171875 367.921875 208.214844 368.285156 205.25 368.578125 C 202.285156 368.871094 199.316406 369.089844 196.339844 369.234375 C 193.363281 369.382812 190.386719 369.457031 187.40625 369.457031 C 184.425781 369.457031 181.449219 369.382812 178.472656 369.234375 C 175.496094 369.089844 172.527344 368.871094 169.5625 368.578125 C 166.597656 368.285156 163.640625 367.921875 160.695312 367.484375 C 157.746094 367.046875 154.8125 366.539062 151.890625 365.957031 C 148.96875 365.375 146.0625 364.722656 143.171875 364 C 140.28125 363.273438 137.410156 362.480469 134.558594 361.617188 C 131.710938 360.75 128.882812 359.816406 126.074219 358.8125 C 123.269531 357.808594 120.492188 356.738281 117.738281 355.597656 C 114.988281 354.457031 112.261719 353.25 109.570312 351.976562 C 106.878906 350.703125 104.214844 349.363281 101.589844 347.960938 C 98.960938 346.554688 96.371094 345.085938 93.816406 343.554688 C 91.257812 342.023438 88.742188 340.429688 86.265625 338.773438 C 83.789062 337.117188 81.351562 335.402344 78.960938 333.628906 C 76.566406 331.855469 74.21875 330.023438 71.914062 328.132812 C 69.613281 326.242188 67.355469 324.296875 65.148438 322.296875 C 62.941406 320.292969 60.785156 318.242188 58.679688 316.132812 C 56.570312 314.027344 54.519531 311.871094 52.515625 309.664062 C 50.515625 307.457031 48.570312 305.199219 46.679688 302.898438 C 44.789062 300.59375 42.957031 298.246094 41.183594 295.851562 C 39.410156 293.460938 37.695312 291.023438 36.039062 288.546875 C 34.382812 286.070312 32.789062 283.554688 31.257812 280.996094 C 29.726562 278.441406 28.257812 275.851562 26.855469 273.222656 C 25.449219 270.597656 24.109375 267.933594 22.835938 265.242188 C 21.5625 262.550781 20.355469 259.824219 19.214844 257.074219 C 18.074219 254.320312 17.003906 251.542969 16 248.738281 C 14.996094 245.929688 14.0625 243.101562 13.195312 240.253906 C 12.332031 237.402344 11.539062 234.53125 10.8125 231.640625 C 10.089844 228.75 9.4375 225.84375 8.855469 222.921875 C 8.273438 220 7.765625 217.066406 7.328125 214.117188 C 6.890625 211.171875 6.527344 208.214844 6.234375 205.25 C 5.941406 202.285156 5.722656 199.316406 5.578125 196.339844 C 5.429688 193.363281 5.359375 190.386719 5.359375 187.40625 C 5.359375 184.425781 5.429688 181.449219 5.578125 178.472656 C 5.722656 175.496094 5.941406 172.527344 6.234375 169.5625 C 6.527344 166.597656 6.890625 163.640625 7.328125 160.695312 C 7.765625 157.746094 8.273438 154.8125 8.855469 151.890625 C 9.4375 148.96875 10.089844 146.0625 10.8125 143.171875 C 11.539062 140.28125 12.332031 137.410156 13.195312 134.558594 C 14.0625 131.710938 14.996094 128.882812 16 126.074219 C 17.003906 123.269531 18.074219 120.492188 19.214844 117.738281 C 20.355469 114.988281 21.5625 112.265625 22.835938 109.570312 C 24.109375 106.878906 25.449219 104.214844 26.855469 101.589844 C 28.257812 98.960938 29.726562 96.371094 31.257812 93.816406 C 32.789062 91.257812 34.382812 88.742188 36.039062 86.265625 C 37.695312 83.789062 39.410156 81.351562 41.183594 78.960938 C 42.957031 76.566406 44.789062 74.21875 46.679688 71.914062 C 48.570312 69.613281 50.515625 67.355469 52.515625 65.148438 C 54.519531 62.941406 56.570312 60.785156 58.679688 58.679688 C 60.785156 56.570312 62.941406 54.519531 65.148438 52.515625 C 67.355469 50.515625 69.613281 48.570312 71.914062 46.679688 C 74.21875 44.789062 76.566406 42.957031 78.960938 41.183594 C 81.351562 39.410156 83.789062 37.695312 86.265625 36.039062 C 88.742188 34.382812 91.257812 32.789062 93.816406 31.257812 C 96.371094 29.726562 98.960938 28.257812 101.589844 26.855469 C 104.214844 25.449219 106.878906 24.109375 109.570312 22.835938 C 112.261719 21.5625 114.988281 20.355469 117.738281 19.214844 C 120.492188 18.074219 123.269531 17.003906 126.074219 16 C 128.882812 14.996094 131.710938 14.0625 134.558594 13.195312 C 137.410156 12.332031 140.28125 11.539062 143.171875 10.8125 C 146.0625 10.089844 148.96875 9.4375 151.890625 8.855469 C 154.8125 8.273438 157.746094 7.765625 160.695312 7.328125 C 163.640625 6.890625 166.597656 6.527344 169.5625 6.234375 C 172.527344 5.941406 175.496094 5.722656 178.472656 5.578125 C 181.449219 5.429688 184.425781 5.359375 187.40625 5.359375 C 190.386719 5.359375 193.363281 5.429688 196.339844 5.578125 C 199.316406 5.722656 202.285156 5.941406 205.25 6.234375 C 208.214844 6.527344 211.171875 6.890625 214.117188 7.328125 C 217.066406 7.765625 220 8.273438 222.921875 8.855469 C 225.84375 9.4375 228.75 10.089844 231.640625 10.8125 C 234.53125 11.539062 237.402344 12.332031 240.253906 13.195312 C 243.101562 14.0625 245.929688 14.996094 248.738281 16 C 251.542969 17.003906 254.320312 18.074219 257.074219 19.214844 C 259.824219 20.355469 262.550781 21.5625 265.242188 22.835938 C 267.9375 24.109375 270.597656 25.449219 273.222656 26.855469 C 275.851562 28.257812 278.441406 29.726562 281 31.257812 C 283.554688 32.789062 286.070312 34.382812 288.546875 36.039062 C 291.023438 37.695312 293.460938 39.410156 295.851562 41.183594 C 298.246094 42.957031 300.59375 44.789062 302.898438 46.679688 C 305.199219 48.570312 307.457031 50.515625 309.664062 52.515625 C 311.871094 54.519531 314.027344 56.570312 316.132812 58.679688 C 318.242188 60.785156 320.292969 62.941406 322.296875 65.148438 C 324.296875 67.355469 326.242188 69.613281 328.132812 71.914062 C 330.023438 74.21875 331.855469 76.566406 333.628906 78.960938 C 335.402344 81.351562 337.117188 83.789062 338.773438 86.265625 C 340.429688 88.742188 342.023438 91.257812 343.554688 93.8125 C 345.085938 96.371094 346.554688 98.960938 347.960938 101.589844 C 349.363281 104.214844 350.703125 106.878906 351.976562 109.570312 C 353.25 112.261719 354.457031 114.988281 355.597656 117.738281 C 356.738281 120.492188 357.808594 123.269531 358.8125 126.074219 C 359.816406 128.882812 360.75 131.710938 361.617188 134.558594 C 362.480469 137.410156 363.277344 140.28125 364 143.171875 C 364.722656 146.0625 365.375 148.96875 365.957031 151.890625 C 366.539062 154.8125 367.046875 157.746094 367.484375 160.695312 C 367.921875 163.640625 368.285156 166.597656 368.578125 169.5625 C 368.871094 172.527344 369.089844 175.496094 369.234375 178.472656 C 369.382812 181.449219 369.457031 184.425781 369.457031 187.40625 Z M 369.457031 187.40625 " fill-opacity="1" fill-rule="nonzero"/></g><g clip-path="url(#13ae4aaf41)"><rect x="-37.5" width="450" fill="#112241" y="-37.499999" height="449.999989" fill-opacity="1"/></g><path fill="#f2dea2" d="M 187.570312 35.242188 C 108.640625 35.242188 43.46875 95.015625 35.988281 172.65625 C 40.871094 168.71875 45.804688 164.3125 50.949219 159.71875 C 56.15625 155.058594 61.542969 150.25 67.039062 145.8125 C 72.785156 141.121094 102.03125 139.40625 108.957031 146.070312 C 117.667969 154.40625 125.917969 161.996094 133.492188 168.652344 C 133.59375 168.726562 133.699219 168.789062 133.804688 168.882812 C 161.867188 193.566406 176.988281 202.605469 181.625 205.097656 C 192.324219 198.730469 207.898438 198.636719 216.804688 208.335938 C 222.542969 207.101562 228.519531 207.890625 233.992188 210.417969 C 233.316406 206.191406 233.597656 201.824219 234.933594 197.792969 C 236.707031 192.414062 241.148438 184.960938 252.214844 179.980469 C 265.140625 174.105469 279.949219 175.757812 291.238281 183.0625 C 283.464844 170.480469 272.851562 164.875 266.0625 162.480469 C 254.605469 158.371094 244.023438 159.347656 238.605469 162.140625 C 237.746094 162.585938 237.015625 163.070312 236.445312 163.582031 C 237.460938 164.785156 238.269531 166.421875 238.769531 168.378906 C 240.234375 174.148438 238.519531 181.433594 231.371094 184.660156 C 226.085938 187.042969 220.484375 186.308594 215.992188 182.652344 C 209.757812 177.558594 207.121094 168.109375 209.261719 158.5625 C 212.484375 144.125 222.714844 136.691406 230.730469 133 C 243.558594 127.097656 259.753906 126.691406 270.71875 131.859375 C 286.410156 127.730469 304.425781 130.769531 319.203125 140.066406 C 326.238281 144.503906 332.109375 150.105469 336.652344 156.578125 C 322.382812 86.84375 261.125 35.242188 187.570312 35.242188 Z M 263.441406 203.777344 C 262.589844 203.894531 261.785156 204.136719 261.070312 204.464844 C 261.46875 204.699219 261.863281 204.960938 262.242188 205.253906 C 265.921875 208.109375 268.222656 213.945312 265.082031 220.527344 C 263.132812 224.652344 258.957031 227.511719 253.917969 228.171875 C 252.917969 228.304688 251.921875 228.304688 250.933594 228.25 C 252.066406 230.972656 252.832031 233.8125 253.191406 236.714844 C 258.96875 236.949219 265.34375 233.917969 269.984375 228.5 C 274.945312 222.695312 276.621094 215.824219 274.492188 210.058594 C 271.914062 205.492188 267.792969 203.121094 263.441406 203.777344 " fill-opacity="1" fill-rule="nonzero"/><path fill="#ffffff" d="M 339.734375 182.800781 C 334.050781 174.726562 322.390625 172.984375 316.042969 174.449219 C 314.238281 174.863281 312.683594 175.433594 311.292969 176.179688 C 306.273438 178.757812 303.3125 183.660156 303.675781 188.699219 C 303.96875 192.808594 306.332031 195.910156 310.152344 197.226562 C 312.371094 197.972656 314.660156 196.667969 315.714844 195.03125 C 316.652344 193.605469 316.535156 192.246094 315.375 191.007812 C 314.714844 190.292969 314.386719 189.324219 314.472656 188.359375 C 314.558594 187.382812 315.0625 186.5 315.847656 185.917969 C 319.378906 183.292969 324.234375 183.519531 328.535156 186.492188 C 333.164062 189.699219 336.953125 195.796875 338.886719 204.34375 C 339.496094 198.816406 339.835938 193.226562 339.835938 187.570312 C 339.835938 185.960938 339.792969 184.398438 339.734375 182.800781 Z M 220.332031 177.332031 C 222.054688 178.742188 224.882812 180.078125 228.546875 178.410156 C 230.746094 177.410156 232.019531 175.695312 232.320312 173.300781 C 232.636719 170.804688 231.777344 168.738281 231.25 168.0625 C 230.40625 167.933594 229.636719 167.507812 229.089844 166.832031 C 228.382812 165.976562 228.140625 164.8125 228.441406 163.730469 C 229.316406 160.621094 231.746094 157.960938 235.464844 156.046875 C 243.402344 151.953125 255.722656 151.808594 267.148438 155.609375 C 278.457031 151.78125 301.59375 154.675781 311.089844 168.769531 C 312.167969 168.378906 313.308594 168.039062 314.523438 167.769531 C 320.027344 166.5 329.125 166.867188 336.792969 171.160156 C 332.75 160.898438 325.441406 152.101562 315.550781 145.871094 C 301.980469 137.339844 285.429688 134.6875 271.320312 138.8125 C 270.457031 139.054688 269.53125 138.96875 268.753906 138.542969 C 259.691406 133.726562 244.914062 134.019531 233.597656 139.230469 C 226.988281 142.273438 218.566406 148.359375 215.960938 160.058594 C 214.15625 168.0625 216.859375 174.496094 220.332031 177.332031 Z M 255.042969 186.230469 C 248.066406 189.367188 243.375 194.101562 241.445312 199.949219 C 239.71875 205.175781 240.285156 211.15625 242.960938 215.941406 C 243.328125 216.53125 243.75 217.25 244.246094 217.800781 C 246.550781 220.527344 249.714844 221.824219 253.035156 221.367188 C 255.703125 221.011719 257.949219 219.566406 258.886719 217.585938 C 260.496094 214.214844 259.433594 211.757812 258.035156 210.671875 C 257.300781 210.105469 256.652344 210.050781 256.503906 210.164062 C 255.378906 211.117188 253.78125 211.214844 252.515625 210.457031 C 251.261719 209.699219 250.632812 208.21875 250.953125 206.78125 C 252.097656 201.679688 256.613281 197.832031 262.457031 196.988281 C 268.164062 196.164062 275.847656 198.335938 280.558594 206.824219 C 280.578125 206.859375 280.585938 206.890625 280.605469 206.921875 C 280.605469 206.929688 280.605469 206.929688 280.605469 206.929688 C 280.945312 207.519531 281.273438 208.109375 281.527344 208.691406 C 285.488281 217.316406 285.441406 227.949219 281.382812 237.785156 C 276.757812 248.996094 267.445312 257.980469 254.996094 263.308594 C 255.441406 266.726562 255.316406 270.109375 254.65625 273.375 C 262.039062 270.613281 270.925781 270.800781 278.820312 274.210938 C 312.488281 248.558594 304.355469 212.023438 298.726562 201.078125 C 290.722656 185.574219 271.121094 178.933594 255.042969 186.230469 Z M 277.933594 281.34375 C 277.835938 281.304688 277.738281 281.28125 277.640625 281.226562 C 268.511719 276.535156 256.882812 277.628906 250.601562 283.78125 L 249.886719 284.546875 C 249.546875 285.128906 249.09375 285.734375 248.566406 286.371094 C 247.339844 288.394531 246.730469 290.792969 246.894531 293.085938 C 247.097656 297.273438 249.453125 300.375 252.511719 300.539062 C 255.761719 300.558594 256.804688 298.753906 257.171875 297.929688 C 257.648438 296.847656 257.71875 295.355469 256.824219 294.453125 C 255.90625 293.535156 255.585938 292.175781 255.992188 290.9375 C 256.40625 289.707031 257.472656 288.820312 258.761719 288.628906 C 261.234375 288.269531 263.601562 288.484375 265.632812 289.222656 C 265.632812 289.222656 265.636719 289.222656 265.636719 289.222656 C 265.679688 289.238281 265.71875 289.257812 265.757812 289.269531 C 271.148438 291.078125 274.8125 296.265625 275.429688 303.164062 C 275.683594 305.992188 275.382812 309.289062 274.335938 312.652344 C 280.390625 308.457031 286.136719 303.8125 291.558594 298.726562 C 288.65625 288.796875 282.660156 283.8125 277.933594 281.34375 Z M 247.800781 261.914062 C 247.152344 259.109375 246.058594 256.386719 244.566406 253.867188 C 243.988281 252.878906 243.9375 251.679688 244.414062 250.644531 C 246.007812 247.289062 246.75 243.589844 246.5625 239.9375 C 246.386719 233.636719 243.683594 227.308594 239.128906 222.511719 C 232.878906 215.804688 224.253906 213.113281 216.5625 215.46875 C 215.1875 215.929688 213.675781 215.410156 212.800781 214.246094 C 206.269531 205.449219 192.25 205.929688 183.777344 211.851562 C 178.664062 215.386719 175.832031 220.574219 175.78125 226.496094 C 175.753906 230.042969 176.949219 232.878906 179.066406 234.253906 C 180.648438 235.273438 182.550781 235.371094 184.445312 234.515625 C 185.292969 234.140625 186.058594 233.007812 186.375 231.6875 C 186.6875 230.390625 186.433594 229.566406 186.308594 229.417969 C 184.679688 228.828125 183.84375 227.179688 184.226562 225.484375 C 185.640625 219.378906 191.007812 215.429688 197.347656 215.855469 C 202.648438 216.074219 208.675781 219.195312 211.234375 225.503906 C 217.199219 224.160156 223.691406 225.730469 228.945312 229.960938 C 239.402344 238.402344 241.449219 254.78125 233.625 267.234375 C 229.980469 272.949219 224.75 277.351562 218.054688 280.335938 C 212.644531 282.730469 207.003906 283.78125 201.328125 283.78125 C 200.136719 283.78125 198.945312 283.726562 197.753906 283.636719 C 206.308594 287.222656 215.746094 289.886719 225.765625 290.652344 L 226.328125 290.652344 C 232.578125 290.652344 238.820312 287.527344 243.042969 282.289062 C 243.507812 281.59375 243.9375 280.972656 244.414062 280.421875 C 248.066406 275.023438 249.269531 268.453125 247.800781 261.914062 Z M 142.660156 280.351562 C 141.394531 283.027344 139.78125 285.375 137.84375 287.347656 C 139.328125 288.621094 141.089844 290.167969 143.089844 291.933594 C 153.0625 300.710938 168.136719 313.972656 183.710938 324.28125 L 184.40625 324.753906 C 194.777344 331.671875 203.742188 337.652344 212.628906 337.761719 C 218.917969 336.730469 225.117188 335.277344 231.191406 333.457031 C 219.582031 331.558594 206.734375 325.832031 192.125 316.152344 C 174.425781 304.425781 154.6875 289.597656 142.660156 280.351562 Z M 154.832031 254.304688 C 154.851562 254.324219 154.878906 254.34375 154.890625 254.355469 C 154.898438 254.363281 154.902344 254.371094 154.902344 254.371094 C 155.9375 255.402344 156.851562 256.328125 157.828125 257.234375 C 157.828125 257.234375 157.835938 257.234375 157.835938 257.234375 C 157.847656 257.25 157.859375 257.261719 157.875 257.269531 C 157.875 257.273438 157.878906 257.273438 157.878906 257.28125 C 157.894531 257.289062 157.902344 257.300781 157.914062 257.308594 C 173.136719 270.964844 196.183594 282.503906 215.265625 274.074219 C 220.699219 271.644531 224.925781 268.113281 227.820312 263.578125 C 233.820312 254.023438 232.433594 241.59375 224.644531 235.292969 C 219.441406 231.117188 213.839844 231.367188 210.359375 232.996094 C 206.476562 234.878906 204.441406 238.492188 204.964844 242.628906 C 205.390625 246.058594 207.140625 248.222656 209.660156 248.425781 C 211.355469 248.648438 213.527344 247.636719 214.257812 245.167969 C 214.691406 243.703125 216.039062 242.863281 217.585938 242.714844 C 219.121094 242.742188 220.457031 243.769531 220.855469 245.253906 C 222.25 250.402344 220.304688 255.914062 215.652344 259.992188 C 209.828125 265.109375 199.0625 268.242188 188.175781 263.714844 C 173.4375 257.550781 163.226562 245.285156 154.222656 234.46875 C 153.285156 233.34375 152.378906 232.257812 151.480469 231.191406 C 153.398438 238.191406 153.292969 244.816406 151.066406 250.410156 C 152.3125 251.757812 153.554688 253.074219 154.832031 254.304688 Z M 110.828125 216.464844 C 124.539062 220.003906 133.765625 228.671875 136.132812 240.242188 C 136.507812 242.09375 135.316406 243.910156 133.457031 244.292969 C 133.347656 244.3125 133.230469 244.3125 133.117188 244.324219 C 133 244.335938 132.886719 244.355469 132.769531 244.355469 C 132.757812 244.355469 132.75 244.351562 132.738281 244.351562 C 132.71875 244.351562 132.699219 244.351562 132.679688 244.34375 C 132.640625 244.351562 132.613281 244.355469 132.574219 244.355469 C 130.910156 244.507812 130.238281 246.824219 130.171875 247.105469 C 129.753906 249.101562 130.152344 252.910156 134.296875 254.539062 C 136.488281 255.371094 138.429688 254.742188 139.675781 254.082031 C 141.363281 253.164062 142.882812 251.5625 143.941406 249.585938 C 143.96875 249.535156 143.972656 249.472656 144 249.421875 C 145.707031 246.15625 148.785156 237.007812 140.367188 222.484375 C 139.375 220.769531 138.261719 219.199219 137.050781 217.820312 C 137.042969 217.8125 137.039062 217.800781 137.03125 217.792969 C 137.019531 217.78125 137.003906 217.773438 137 217.761719 C 122.914062 200.941406 92.445312 194.71875 66.136719 203.3125 C 55.988281 206.628906 46.707031 211.882812 38.488281 218.878906 C 39.757812 224.984375 41.414062 231.050781 43.46875 237 C 64.023438 216.300781 92.261719 211.640625 110.828125 216.464844 Z M 138.515625 261.59375 C 137.824219 261.707031 137.128906 261.777344 136.433594 261.777344 C 134.871094 261.777344 133.328125 261.503906 131.839844 260.941406 C 124.480469 258.054688 122.34375 251.023438 123.457031 245.703125 C 123.882812 243.667969 124.753906 241.96875 125.917969 240.632812 C 115.808594 234.800781 104.355469 232.863281 92.777344 234.828125 C 100.945312 236.125 108.503906 239.535156 114.5625 244.917969 C 123.5625 252.921875 127.464844 264.074219 125.003906 274.761719 C 124.640625 276.332031 123.164062 277.105469 121.613281 277.417969 C 119.996094 277.398438 118.617188 276.253906 118.292969 274.667969 C 118 273.21875 116.640625 272.632812 115.558594 272.574219 C 114.839844 272.472656 112.410156 272.640625 111.34375 275.9375 C 110.480469 278.578125 111.257812 280.761719 112.058594 282.136719 C 114.101562 285.867188 118.320312 287.863281 122.929688 287.253906 C 125.832031 286.921875 128.386719 286.003906 130.570312 284.527344 C 133.988281 282.214844 136.414062 278.640625 137.769531 273.929688 C 138.785156 270.238281 139.027344 266.019531 138.515625 261.59375 Z M 49.3125 175.484375 C 51.417969 175.851562 53.171875 176.792969 54.515625 178.207031 C 62.296875 171.441406 69.597656 168.679688 74.976562 170.621094 C 76.214844 171.066406 77.289062 171.769531 78.171875 172.664062 C 82.125 167.761719 86.253906 165.347656 90.679688 165.308594 L 90.78125 165.308594 C 95.9375 165.308594 100.835938 168.601562 105.675781 175.339844 C 107.554688 173.710938 109.808594 172.777344 112.339844 172.632812 C 116.257812 172.433594 120.316406 174.105469 124.066406 176.53125 C 124.09375 175.734375 124.171875 174.953125 124.378906 174.222656 C 124.640625 173.292969 125.125 172.207031 125.984375 171.164062 C 119.164062 165.085938 111.875 158.359375 104.203125 151.023438 C 100.351562 147.3125 75.089844 148.089844 71.359375 151.132812 C 65.984375 155.480469 60.664062 160.230469 55.515625 164.832031 C 51.171875 168.71875 46.96875 172.46875 42.785156 175.949219 C 45.050781 175.355469 47.300781 175.125 49.3125 175.484375 Z M 118.785156 266.28125 C 118.222656 260.34375 115.199219 254.664062 110.003906 250.042969 C 102.066406 242.980469 87.457031 237.640625 70.1875 243.707031 C 63.867188 247.707031 58.074219 252.777344 52.929688 258.792969 C 54.253906 261.28125 55.527344 263.542969 56.792969 265.644531 C 64.65625 257.359375 76.148438 253.996094 84.851562 254.429688 C 93.359375 254.859375 100.121094 258.5625 103.414062 264.597656 C 103.902344 265.496094 103.960938 266.566406 103.582031 267.515625 C 103.195312 268.472656 102.40625 269.199219 101.429688 269.507812 C 97.515625 270.742188 96.75 273.570312 96.632812 275.132812 C 96.4375 277.835938 97.84375 280.46875 100.050781 281.601562 C 100.101562 281.625 100.152344 281.652344 100.207031 281.683594 C 101.460938 282.253906 102.96875 282.347656 104.617188 281.945312 C 103.902344 279.308594 103.941406 276.503906 104.820312 273.8125 C 106.515625 268.609375 110.992188 265.429688 115.953125 265.722656 C 116.941406 265.78125 117.894531 265.972656 118.785156 266.28125 " fill-opacity="1" fill-rule="nonzero"/><path fill="#27498c" d="M 324.628906 192.128906 C 324.261719 191.878906 323.6875 191.519531 323.019531 191.261719 C 323.535156 193.75 323.023438 196.378906 321.460938 198.777344 C 320.347656 200.496094 318.835938 201.859375 317.128906 202.800781 C 321.578125 207.433594 324.738281 214.265625 326.269531 222.765625 C 327.828125 231.347656 327.613281 241.726562 325.230469 252.679688 C 326.753906 249.449219 328.183594 246.148438 329.484375 242.785156 C 329.503906 242.695312 329.515625 242.601562 329.542969 242.519531 C 338.484375 211.5625 330.230469 196.019531 324.628906 192.128906 Z M 278.742188 160.976562 C 285.292969 164.988281 292.464844 171.285156 298.078125 181.0625 C 299.441406 177.546875 301.835938 174.40625 305.027344 172.035156 C 299.328125 164.117188 287.785156 161.125 278.742188 160.976562 Z M 263.445312 300.691406 C 261.542969 305.046875 257.234375 307.554688 252.171875 307.390625 C 246.613281 307.082031 242.171875 302.972656 240.625 297.167969 C 237.53125 297.527344 234.515625 297.707031 231.542969 297.707031 C 229.75 297.707031 227.96875 297.640625 226.191406 297.515625 L 225.566406 297.515625 C 225.5625 297.515625 225.546875 297.507812 225.542969 297.507812 C 225.464844 297.507812 225.386719 297.507812 225.3125 297.507812 C 225.300781 297.507812 225.300781 297.503906 225.292969 297.503906 C 224.800781 297.496094 224.273438 297.46875 223.808594 297.378906 C 223.753906 297.371094 223.714844 297.34375 223.664062 297.332031 C 214.875 296.496094 206.539062 294.363281 198.835938 291.457031 C 213.46875 302.15625 228.984375 311.015625 242.65625 312.980469 C 252.957031 314.484375 260.234375 312.101562 263.078125 306.257812 C 264.25 303.871094 264.441406 301.226562 264.023438 299 C 263.871094 299.570312 263.695312 300.132812 263.445312 300.691406 Z M 210.582031 255.296875 C 210.089844 255.324219 209.59375 255.304688 209.082031 255.257812 C 204.664062 254.894531 199.160156 251.582031 198.160156 243.472656 C 197.386719 237.300781 199.980469 231.660156 205.019531 228.191406 C 203.683594 224.710938 200.148438 222.832031 197.074219 222.707031 C 196.027344 222.617188 193.207031 222.773438 191.6875 225.144531 C 192.710938 226.4375 193.3125 228.160156 193.375 230.136719 C 193.507812 234.035156 191.441406 238.9375 187.230469 240.785156 C 183.234375 242.589844 178.875 242.308594 175.320312 240.003906 C 171.210938 237.328125 168.867188 232.375 168.921875 226.433594 C 168.972656 220 171.402344 214.21875 175.792969 209.691406 C 169.066406 205.753906 154.765625 196.28125 131.160156 175.675781 C 131.050781 175.84375 131.003906 175.996094 130.976562 176.09375 C 130.527344 177.671875 131.652344 181.628906 136.296875 187.585938 C 136.78125 188.117188 137.417969 188.886719 138.058594 189.660156 C 139.261719 191.125 139.066406 193.3125 137.605469 194.507812 C 136.964844 195.046875 136.1875 195.308594 135.414062 195.308594 C 134.4375 195.308594 133.472656 194.886719 132.804688 194.070312 L 132.757812 194.019531 C 132.179688 193.316406 131.613281 192.625 131.035156 191.984375 C 131.03125 191.96875 131.023438 191.964844 131.015625 191.949219 C 131.011719 191.949219 131.003906 191.945312 131.003906 191.9375 C 124.117188 184 117.148438 179.195312 112.730469 179.476562 C 111.402344 179.554688 110.355469 180.152344 109.445312 181.296875 C 110.324219 182.828125 111.175781 184.410156 111.984375 186.074219 C 112.816406 187.773438 112.117188 189.824219 110.410156 190.65625 C 108.726562 191.480469 106.652344 190.777344 105.820312 189.070312 C 104.585938 186.539062 103.269531 184.164062 101.894531 182.007812 C 97.851562 175.5625 94.007812 172.167969 90.777344 172.167969 L 90.738281 172.167969 C 87.640625 172.191406 84.101562 175.359375 80.496094 181.324219 C 79.730469 182.597656 78.257812 183.246094 76.785156 182.894531 C 75.339844 182.546875 74.269531 181.324219 74.140625 179.84375 C 73.945312 177.546875 72.949219 177.1875 72.621094 177.0625 C 70.023438 176.113281 63.753906 178.488281 56.175781 186.027344 C 53.171875 188.964844 50.117188 192.578125 47.078125 196.78125 C 46.40625 197.710938 45.359375 198.199219 44.296875 198.199219 C 43.597656 198.199219 42.898438 197.996094 42.289062 197.550781 C 40.75 196.445312 40.40625 194.300781 41.515625 192.761719 C 44.199219 189.058594 46.902344 185.785156 49.59375 182.964844 C 49.195312 182.53125 48.703125 182.335938 48.128906 182.238281 C 44.449219 181.617188 37.839844 185.046875 35.246094 187.789062 C 35.261719 195.757812 35.882812 203.59375 37.074219 211.183594 C 44.972656 205.011719 53.722656 200.28125 63.171875 197.085938 C 67.054688 193.023438 70.015625 187.847656 70.050781 187.792969 C 70.980469 186.144531 73.074219 185.574219 74.722656 186.503906 C 76.371094 187.449219 76.949219 189.535156 76.011719 191.183594 C 75.953125 191.296875 75.265625 192.480469 74.148438 194.175781 C 100.21875 189.078125 127.28125 196.191406 141.652344 212.664062 C 147.757812 215.992188 153.207031 222.523438 159.496094 230.078125 C 168 240.292969 177.632812 251.875 190.8125 257.386719 C 198.625 260.632812 206.238281 258.714844 210.582031 255.296875 Z M 149.40625 203.316406 C 148.730469 204.195312 147.71875 204.652344 146.695312 204.652344 C 145.957031 204.652344 145.222656 204.417969 144.597656 203.933594 C 143.496094 203.082031 142.894531 202.472656 142.894531 202.472656 C 141.574219 201.132812 141.578125 198.960938 142.921875 197.625 C 144.253906 196.300781 146.410156 196.300781 147.730469 197.609375 C 147.800781 197.671875 148.167969 198.03125 148.789062 198.507812 C 150.289062 199.664062 150.5625 201.824219 149.40625 203.316406 Z M 97 287.746094 C 92.871094 285.402344 88.882812 283.609375 85.023438 282.359375 C 96.121094 289.957031 106.535156 301.980469 115.632812 312.496094 C 121.15625 318.882812 126.371094 324.898438 130.839844 328.910156 C 140.144531 332.640625 149.71875 335.414062 159.492188 337.234375 C 150.40625 332.003906 140.90625 324.484375 130.386719 314.316406 C 117.261719 301.644531 106.644531 293.195312 97 287.746094 Z M 89.789062 274.644531 C 90.074219 270.664062 92 267.300781 95.121094 265.0625 C 92.621094 262.84375 88.929688 261.503906 84.511719 261.285156 C 76.910156 260.886719 66.910156 264.007812 60.613281 271.671875 C 61.234375 272.621094 61.863281 273.550781 62.511719 274.460938 C 71.234375 272.40625 80.246094 273.15625 89.800781 276.765625 C 89.75 276.0625 89.742188 275.355469 89.789062 274.644531 " fill-opacity="1" fill-rule="nonzero"/><path fill="#0477bf" d="M 319.53125 223.984375 C 317.730469 214.050781 313.339844 206.820312 307.484375 204.136719 C 307.421875 204.117188 307.371094 204.097656 307.320312 204.070312 C 312.625 220.246094 315.414062 253.269531 285.238281 277.894531 C 290.394531 281.679688 294.375 286.953125 296.894531 293.328125 C 317.140625 270.46875 322.886719 242.570312 319.53125 223.984375 Z M 253.800781 243.589844 C 253.636719 243.589844 253.472656 243.566406 253.308594 243.566406 C 253.0625 246.40625 252.417969 249.230469 251.339844 251.929688 C 252.125 253.414062 252.785156 254.953125 253.347656 256.527344 C 263.597656 251.871094 271.242188 244.390625 275.042969 235.167969 C 275.519531 233.996094 275.917969 232.820312 276.265625 231.632812 C 275.917969 232.078125 275.566406 232.523438 275.191406 232.957031 C 269.429688 239.695312 261.410156 243.589844 253.800781 243.589844 Z M 248.304688 320.269531 C 246.28125 320.277344 244.074219 320.121094 241.671875 319.773438 C 221.941406 316.9375 197.210938 301.554688 163.847656 271.363281 C 163.738281 271.28125 163.664062 271.214844 163.574219 271.136719 C 160.136719 268.484375 156.75 265.597656 153.207031 262.300781 C 153.195312 262.289062 153.183594 262.273438 153.167969 262.261719 C 152.175781 261.339844 151.246094 260.410156 150.316406 259.480469 C 150.183594 259.375 150.066406 259.25 149.949219 259.121094 C 149.085938 258.28125 148.226562 257.40625 147.382812 256.515625 C 146.65625 257.328125 145.890625 258.09375 145.054688 258.742188 C 145.867188 263.878906 145.828125 268.882812 144.921875 273.4375 C 156.605469 282.449219 177.410156 298.171875 195.921875 310.433594 C 220.214844 326.546875 238.828125 330.949219 254.480469 324.335938 C 254.519531 324.316406 254.742188 324.210938 254.9375 324.125 C 255.554688 323.816406 256.175781 323.503906 256.789062 323.164062 C 256.933594 323.070312 257.09375 322.992188 257.25 322.90625 C 257.269531 322.902344 257.28125 322.894531 257.292969 322.882812 C 262.308594 320.203125 265.355469 316.460938 267.019531 312.683594 C 264.101562 316.238281 258.539062 320.269531 248.304688 320.269531 Z M 179.910156 329.996094 C 163.960938 319.433594 148.0625 305.441406 138.554688 297.082031 C 135.984375 294.8125 133.832031 292.921875 132.175781 291.527344 C 129.617188 292.855469 126.800781 293.714844 123.757812 294.066406 C 122.929688 294.171875 122.109375 294.222656 121.296875 294.222656 C 120.085938 294.222656 118.910156 294.074219 117.757812 293.851562 C 123.125 298.191406 128.871094 303.320312 135.152344 309.386719 C 156.925781 330.433594 173.765625 339.523438 191.460938 339.765625 L 191.480469 339.765625 C 192.664062 339.753906 193.761719 339.695312 194.785156 339.632812 L 194.785156 339.648438 C 195.027344 339.640625 195.25 339.632812 195.445312 339.632812 C 190.535156 337.082031 185.636719 333.816406 180.601562 330.460938 Z M 125.101562 232.519531 C 121.554688 228.148438 116.117188 224.914062 109.113281 223.109375 C 91.242188 218.492188 64.1875 224.351562 46.152344 244.207031 C 47.199219 246.851562 48.355469 249.511719 49.617188 252.191406 C 54.796875 246.511719 60.535156 241.660156 66.757812 237.753906 C 66.796875 237.726562 66.84375 237.714844 66.882812 237.6875 C 66.890625 237.6875 66.890625 237.679688 66.894531 237.679688 C 66.921875 237.667969 66.941406 237.65625 66.96875 237.640625 C 66.980469 237.636719 66.988281 237.621094 67 237.617188 C 67.015625 237.601562 67.035156 237.601562 67.046875 237.597656 C 85.867188 225.875 107.222656 224.226562 125.101562 232.519531 Z M 68.179688 282.039062 C 80.71875 297.871094 96.15625 310.972656 113.648438 320.675781 C 112.59375 319.464844 111.527344 318.242188 110.449219 316.992188 C 97.902344 302.488281 82.765625 284.957031 68.179688 282.039062 " fill-opacity="1" fill-rule="nonzero"/><g clip-path="url(#868aaabba3)"><path fill="#112140" d="M 346.695312 187.570312 C 346.695312 185.796875 346.644531 184.0625 346.578125 182.296875 C 346.605469 182.140625 346.628906 181.984375 346.628906 181.8125 C 346.628906 181.609375 346.589844 181.402344 346.550781 181.199219 C 343.160156 95.5 273.335938 28.382812 187.570312 28.382812 C 102.449219 28.382812 32.617188 94.917969 28.597656 179.796875 C 28.449219 182.003906 28.382812 184.273438 28.382812 186.472656 L 28.382812 187.570312 C 28.382812 198.070312 29.378906 208.375 31.320312 218.191406 C 33.050781 227.164062 35.621094 236.085938 38.957031 244.675781 C 40.863281 249.695312 43.152344 254.820312 45.769531 259.925781 C 45.777344 259.9375 45.785156 259.953125 45.789062 259.964844 C 48.511719 265.226562 50.980469 269.5 53.511719 273.328125 C 55.003906 275.742188 56.648438 278.15625 58.308594 280.382812 C 75.894531 304.832031 99.871094 323.710938 127.640625 334.980469 L 127.644531 334.976562 C 127.671875 334.980469 127.707031 335 127.730469 335.015625 L 127.710938 335.058594 C 146.773438 342.777344 166.917969 346.695312 187.570312 346.695312 C 188.945312 346.695312 190.234375 346.695312 191.414062 346.625 C 192.671875 346.625 194 346.609375 194.910156 346.492188 C 194.960938 346.492188 195.011719 346.492188 195.066406 346.488281 C 195.734375 346.488281 196.445312 346.472656 197.125 346.40625 L 197.125 346.414062 C 203.082031 346.035156 208.421875 345.433594 213.433594 344.589844 C 213.46875 344.582031 213.5 344.574219 213.539062 344.570312 C 213.558594 344.5625 213.578125 344.5625 213.597656 344.554688 C 228.75 342.082031 243.40625 337.398438 257.175781 330.628906 C 257.375 330.550781 257.773438 330.402344 257.957031 330.289062 C 257.960938 330.28125 257.960938 330.28125 257.96875 330.28125 L 257.96875 330.277344 L 259.664062 329.472656 C 259.9375 329.332031 260.378906 329.117188 260.855469 328.757812 C 274.277344 321.859375 286.699219 312.972656 297.769531 302.320312 L 297.757812 302.3125 C 298.03125 302.117188 298.300781 301.894531 298.367188 301.722656 C 314.996094 285.644531 327.644531 266.574219 335.96875 245.058594 L 335.964844 245.050781 C 336.046875 244.835938 336.121094 244.597656 336.167969 244.355469 C 343.140625 226.386719 346.695312 207.289062 346.695312 187.570312 Z M 262.242188 205.253906 C 261.863281 204.960938 261.46875 204.699219 261.070312 204.464844 C 261.785156 204.136719 262.589844 203.894531 263.441406 203.777344 C 267.792969 203.121094 271.914062 205.492188 274.492188 210.058594 C 276.621094 215.824219 274.945312 222.695312 269.984375 228.5 C 265.34375 233.917969 258.96875 236.949219 253.191406 236.714844 C 252.832031 233.8125 252.066406 230.972656 250.933594 228.25 C 251.921875 228.304688 252.917969 228.304688 253.917969 228.171875 C 258.957031 227.511719 263.132812 224.652344 265.082031 220.527344 C 268.222656 213.945312 265.921875 208.109375 262.242188 205.253906 Z M 253.308594 243.566406 C 253.472656 243.566406 253.636719 243.589844 253.800781 243.589844 C 261.410156 243.589844 269.429688 239.695312 275.191406 232.957031 C 275.566406 232.523438 275.917969 232.078125 276.265625 231.632812 C 275.917969 232.820312 275.519531 233.996094 275.042969 235.167969 C 271.242188 244.390625 263.597656 251.871094 253.347656 256.527344 C 252.785156 254.953125 252.125 253.414062 251.339844 251.929688 C 252.417969 249.230469 253.0625 246.40625 253.308594 243.566406 Z M 254.996094 263.308594 C 267.445312 257.980469 276.757812 248.996094 281.382812 237.785156 C 285.441406 227.949219 285.488281 217.316406 281.527344 208.691406 C 281.273438 208.109375 280.945312 207.519531 280.605469 206.929688 C 280.605469 206.929688 280.605469 206.929688 280.605469 206.921875 C 280.585938 206.890625 280.578125 206.859375 280.558594 206.824219 C 275.847656 198.335938 268.164062 196.164062 262.457031 196.988281 C 256.613281 197.832031 252.097656 201.679688 250.953125 206.78125 C 250.632812 208.21875 251.261719 209.699219 252.515625 210.457031 C 253.78125 211.214844 255.378906 211.117188 256.503906 210.164062 C 256.652344 210.050781 257.300781 210.105469 258.035156 210.671875 C 259.433594 211.757812 260.496094 214.214844 258.886719 217.585938 C 257.949219 219.566406 255.703125 221.011719 253.035156 221.367188 C 249.714844 221.824219 246.550781 220.527344 244.246094 217.800781 C 243.75 217.25 243.328125 216.53125 242.960938 215.941406 C 240.285156 211.15625 239.71875 205.175781 241.445312 199.949219 C 243.375 194.101562 248.066406 189.367188 255.042969 186.230469 C 271.121094 178.933594 290.722656 185.574219 298.726562 201.078125 C 304.355469 212.023438 312.488281 248.558594 278.820312 274.210938 C 270.925781 270.800781 262.039062 270.613281 254.65625 273.375 C 255.316406 270.109375 255.441406 266.726562 254.996094 263.308594 Z M 244.414062 280.421875 C 243.9375 280.972656 243.507812 281.59375 243.042969 282.289062 C 238.820312 287.527344 232.578125 290.652344 226.328125 290.652344 L 225.765625 290.652344 C 215.746094 289.886719 206.308594 287.222656 197.753906 283.636719 C 198.945312 283.726562 200.136719 283.78125 201.328125 283.78125 C 207.003906 283.78125 212.644531 282.730469 218.054688 280.335938 C 224.75 277.351562 229.980469 272.949219 233.625 267.234375 C 241.449219 254.78125 239.402344 238.402344 228.945312 229.960938 C 223.691406 225.730469 217.199219 224.160156 211.234375 225.503906 C 208.675781 219.195312 202.648438 216.074219 197.347656 215.855469 C 191.007812 215.429688 185.640625 219.378906 184.226562 225.484375 C 183.84375 227.179688 184.679688 228.828125 186.308594 229.417969 C 186.433594 229.566406 186.6875 230.390625 186.375 231.6875 C 186.058594 233.007812 185.292969 234.140625 184.445312 234.515625 C 182.550781 235.371094 180.648438 235.273438 179.066406 234.253906 C 176.949219 232.878906 175.753906 230.042969 175.78125 226.496094 C 175.832031 220.574219 178.664062 215.386719 183.777344 211.851562 C 192.25 205.929688 206.269531 205.449219 212.800781 214.246094 C 213.675781 215.410156 215.1875 215.929688 216.5625 215.46875 C 224.253906 213.113281 232.878906 215.804688 239.128906 222.511719 C 243.683594 227.308594 246.386719 233.636719 246.5625 239.9375 C 246.75 243.589844 246.007812 247.289062 244.414062 250.644531 C 243.9375 251.679688 243.988281 252.878906 244.566406 253.867188 C 246.058594 256.386719 247.152344 259.109375 247.800781 261.914062 C 249.269531 268.453125 248.066406 275.023438 244.414062 280.421875 Z M 252.171875 307.390625 C 257.234375 307.554688 261.542969 305.046875 263.445312 300.691406 C 263.695312 300.132812 263.871094 299.570312 264.023438 299 C 264.441406 301.226562 264.25 303.871094 263.078125 306.257812 C 260.234375 312.101562 252.957031 314.484375 242.65625 312.980469 C 228.984375 311.015625 213.46875 302.15625 198.835938 291.457031 C 206.539062 294.363281 214.875 296.496094 223.664062 297.332031 C 223.714844 297.34375 223.753906 297.371094 223.808594 297.378906 C 224.273438 297.46875 224.800781 297.496094 225.292969 297.503906 C 225.300781 297.503906 225.300781 297.507812 225.3125 297.507812 C 225.386719 297.507812 225.464844 297.507812 225.542969 297.507812 C 225.546875 297.507812 225.5625 297.515625 225.566406 297.515625 L 226.191406 297.515625 C 227.96875 297.640625 229.75 297.707031 231.542969 297.707031 C 234.515625 297.707031 237.53125 297.527344 240.625 297.167969 C 242.171875 302.972656 246.613281 307.082031 252.171875 307.390625 Z M 151.480469 231.191406 C 152.378906 232.257812 153.285156 233.34375 154.222656 234.46875 C 163.226562 245.285156 173.4375 257.550781 188.175781 263.714844 C 199.0625 268.242188 209.828125 265.109375 215.652344 259.992188 C 220.304688 255.914062 222.25 250.402344 220.855469 245.253906 C 220.457031 243.769531 219.121094 242.742188 217.585938 242.714844 C 216.039062 242.863281 214.691406 243.703125 214.257812 245.167969 C 213.527344 247.636719 211.355469 248.648438 209.660156 248.425781 C 207.140625 248.222656 205.390625 246.058594 204.964844 242.628906 C 204.441406 238.492188 206.476562 234.878906 210.359375 232.996094 C 213.839844 231.367188 219.441406 231.117188 224.644531 235.292969 C 232.433594 241.59375 233.820312 254.023438 227.820312 263.578125 C 224.925781 268.113281 220.699219 271.644531 215.265625 274.074219 C 196.183594 282.503906 173.136719 270.964844 157.914062 257.308594 C 157.902344 257.300781 157.894531 257.289062 157.878906 257.28125 C 157.878906 257.273438 157.875 257.273438 157.875 257.269531 C 157.859375 257.261719 157.847656 257.25 157.835938 257.234375 C 157.835938 257.234375 157.828125 257.234375 157.828125 257.234375 C 156.851562 256.328125 155.9375 255.402344 154.902344 254.371094 C 154.902344 254.371094 154.898438 254.363281 154.890625 254.355469 C 154.878906 254.34375 154.851562 254.324219 154.832031 254.304688 C 153.554688 253.074219 152.3125 251.757812 151.066406 250.410156 C 153.292969 244.816406 153.398438 238.191406 151.480469 231.191406 Z M 298.078125 181.0625 C 292.464844 171.285156 285.292969 164.988281 278.742188 160.976562 C 287.785156 161.125 299.328125 164.117188 305.027344 172.035156 C 301.835938 174.40625 299.441406 177.546875 298.078125 181.0625 Z M 267.148438 155.609375 C 255.722656 151.808594 243.402344 151.953125 235.464844 156.046875 C 231.746094 157.960938 229.316406 160.621094 228.441406 163.730469 C 228.140625 164.8125 228.382812 165.976562 229.089844 166.832031 C 229.636719 167.507812 230.40625 167.933594 231.25 168.0625 C 231.777344 168.738281 232.636719 170.804688 232.320312 173.300781 C 232.019531 175.695312 230.746094 177.410156 228.546875 178.410156 C 224.882812 180.078125 222.054688 178.742188 220.332031 177.332031 C 216.859375 174.496094 214.15625 168.0625 215.960938 160.058594 C 218.566406 148.359375 226.988281 142.273438 233.597656 139.230469 C 244.914062 134.019531 259.691406 133.726562 268.753906 138.542969 C 269.53125 138.96875 270.457031 139.054688 271.320312 138.8125 C 285.429688 134.6875 301.980469 137.339844 315.550781 145.871094 C 325.441406 152.101562 332.75 160.898438 336.792969 171.160156 C 329.125 166.867188 320.027344 166.5 314.523438 167.769531 C 313.308594 168.039062 312.167969 168.378906 311.089844 168.769531 C 301.59375 154.675781 278.457031 151.78125 267.148438 155.609375 Z M 187.570312 35.242188 C 261.125 35.242188 322.382812 86.84375 336.652344 156.578125 C 332.109375 150.105469 326.238281 144.503906 319.203125 140.066406 C 304.425781 130.769531 286.410156 127.730469 270.71875 131.859375 C 259.753906 126.691406 243.558594 127.097656 230.730469 133 C 222.714844 136.691406 212.484375 144.125 209.261719 158.5625 C 207.121094 168.109375 209.757812 177.558594 215.992188 182.652344 C 220.484375 186.308594 226.085938 187.042969 231.371094 184.660156 C 238.519531 181.433594 240.234375 174.148438 238.769531 168.378906 C 238.269531 166.421875 237.460938 164.785156 236.445312 163.582031 C 237.015625 163.070312 237.746094 162.585938 238.605469 162.140625 C 244.023438 159.347656 254.605469 158.371094 266.0625 162.480469 C 272.851562 164.875 283.464844 170.480469 291.238281 183.0625 C 279.949219 175.757812 265.140625 174.105469 252.214844 179.980469 C 241.148438 184.960938 236.707031 192.414062 234.933594 197.792969 C 233.597656 201.824219 233.316406 206.191406 233.992188 210.417969 C 228.519531 207.890625 222.542969 207.101562 216.804688 208.335938 C 207.898438 198.636719 192.324219 198.730469 181.625 205.097656 C 176.988281 202.605469 161.867188 193.566406 133.804688 168.882812 C 133.699219 168.789062 133.59375 168.726562 133.492188 168.652344 C 125.917969 161.996094 117.667969 154.40625 108.957031 146.070312 C 102.03125 139.40625 72.785156 141.121094 67.039062 145.8125 C 61.542969 150.25 56.15625 155.058594 50.949219 159.71875 C 45.804688 164.3125 40.871094 168.71875 35.988281 172.65625 C 43.46875 95.015625 108.640625 35.242188 187.570312 35.242188 Z M 125.984375 171.164062 C 125.125 172.207031 124.640625 173.292969 124.378906 174.222656 C 124.171875 174.953125 124.09375 175.734375 124.066406 176.53125 C 120.316406 174.105469 116.257812 172.433594 112.339844 172.632812 C 109.808594 172.777344 107.554688 173.710938 105.675781 175.339844 C 100.835938 168.601562 95.9375 165.308594 90.78125 165.308594 L 90.679688 165.308594 C 86.253906 165.347656 82.125 167.761719 78.171875 172.664062 C 77.289062 171.769531 76.214844 171.066406 74.976562 170.621094 C 69.597656 168.679688 62.296875 171.441406 54.515625 178.207031 C 53.171875 176.792969 51.417969 175.851562 49.3125 175.484375 C 47.300781 175.125 45.050781 175.355469 42.785156 175.949219 C 46.96875 172.46875 51.171875 168.71875 55.515625 164.832031 C 60.664062 160.230469 65.984375 155.480469 71.359375 151.132812 C 75.089844 148.089844 100.351562 147.3125 104.203125 151.023438 C 111.875 158.359375 119.164062 165.085938 125.984375 171.164062 Z M 35.246094 187.789062 C 37.839844 185.046875 44.449219 181.617188 48.128906 182.238281 C 48.703125 182.335938 49.195312 182.53125 49.59375 182.964844 C 46.902344 185.785156 44.199219 189.058594 41.515625 192.761719 C 40.40625 194.300781 40.75 196.445312 42.289062 197.550781 C 42.898438 197.996094 43.597656 198.199219 44.296875 198.199219 C 45.359375 198.199219 46.40625 197.710938 47.078125 196.78125 C 50.117188 192.578125 53.171875 188.964844 56.175781 186.027344 C 63.753906 178.488281 70.023438 176.113281 72.621094 177.0625 C 72.949219 177.1875 73.945312 177.546875 74.140625 179.84375 C 74.269531 181.324219 75.339844 182.546875 76.785156 182.894531 C 78.257812 183.246094 79.730469 182.597656 80.496094 181.324219 C 84.101562 175.359375 87.640625 172.191406 90.738281 172.167969 L 90.777344 172.167969 C 94.007812 172.167969 97.851562 175.5625 101.894531 182.007812 C 103.269531 184.164062 104.585938 186.539062 105.820312 189.070312 C 106.652344 190.777344 108.726562 191.480469 110.410156 190.65625 C 112.117188 189.824219 112.816406 187.773438 111.984375 186.074219 C 111.175781 184.410156 110.324219 182.828125 109.445312 181.296875 C 110.355469 180.152344 111.402344 179.554688 112.730469 179.476562 C 117.148438 179.195312 124.117188 184 131.003906 191.9375 C 131.003906 191.945312 131.011719 191.949219 131.015625 191.949219 C 131.023438 191.964844 131.03125 191.96875 131.035156 191.984375 C 131.613281 192.625 132.179688 193.316406 132.757812 194.019531 L 132.804688 194.070312 C 133.472656 194.886719 134.4375 195.308594 135.414062 195.308594 C 136.1875 195.308594 136.964844 195.046875 137.605469 194.507812 C 139.066406 193.3125 139.261719 191.125 138.058594 189.660156 C 137.417969 188.886719 136.78125 188.117188 136.296875 187.585938 C 131.652344 181.628906 130.527344 177.671875 130.976562 176.09375 C 131.003906 175.996094 131.050781 175.84375 131.160156 175.675781 C 154.765625 196.28125 169.066406 205.753906 175.792969 209.691406 C 171.402344 214.21875 168.972656 220 168.921875 226.433594 C 168.867188 232.375 171.210938 237.328125 175.320312 240.003906 C 178.875 242.308594 183.234375 242.589844 187.230469 240.785156 C 191.441406 238.9375 193.507812 234.035156 193.375 230.136719 C 193.3125 228.160156 192.710938 226.4375 191.6875 225.144531 C 193.207031 222.773438 196.027344 222.617188 197.074219 222.707031 C 200.148438 222.832031 203.683594 224.710938 205.019531 228.191406 C 199.980469 231.660156 197.386719 237.300781 198.160156 243.472656 C 199.160156 251.582031 204.664062 254.894531 209.082031 255.257812 C 209.59375 255.304688 210.089844 255.324219 210.582031 255.296875 C 206.238281 258.714844 198.625 260.632812 190.8125 257.386719 C 177.632812 251.875 168 240.292969 159.496094 230.078125 C 153.207031 222.523438 147.757812 215.992188 141.652344 212.664062 C 127.28125 196.191406 100.21875 189.078125 74.148438 194.175781 C 75.265625 192.480469 75.953125 191.296875 76.011719 191.183594 C 76.949219 189.535156 76.371094 187.449219 74.722656 186.503906 C 73.074219 185.574219 70.980469 186.144531 70.050781 187.792969 C 70.015625 187.847656 67.054688 193.023438 63.171875 197.085938 C 53.722656 200.28125 44.972656 205.011719 37.074219 211.183594 C 35.882812 203.59375 35.261719 195.757812 35.246094 187.789062 Z M 43.46875 237 C 41.414062 231.050781 39.757812 224.984375 38.488281 218.878906 C 46.707031 211.882812 55.988281 206.628906 66.136719 203.3125 C 92.445312 194.71875 122.914062 200.941406 137 217.761719 C 137.003906 217.773438 137.019531 217.78125 137.03125 217.792969 C 137.039062 217.800781 137.042969 217.8125 137.050781 217.820312 C 138.261719 219.199219 139.375 220.769531 140.367188 222.484375 C 148.785156 237.007812 145.707031 246.15625 144 249.421875 C 143.972656 249.472656 143.96875 249.535156 143.941406 249.585938 C 142.882812 251.5625 141.363281 253.164062 139.675781 254.082031 C 138.429688 254.742188 136.488281 255.371094 134.296875 254.539062 C 130.152344 252.910156 129.753906 249.101562 130.171875 247.105469 C 130.238281 246.824219 130.910156 244.507812 132.574219 244.355469 C 132.613281 244.355469 132.640625 244.351562 132.679688 244.34375 C 132.699219 244.351562 132.71875 244.351562 132.738281 244.351562 C 132.75 244.351562 132.757812 244.355469 132.769531 244.355469 C 132.886719 244.355469 133 244.335938 133.117188 244.324219 C 133.230469 244.3125 133.347656 244.3125 133.457031 244.292969 C 135.316406 243.910156 136.507812 242.09375 136.132812 240.242188 C 133.765625 228.671875 124.539062 220.003906 110.828125 216.464844 C 92.261719 211.640625 64.023438 216.300781 43.46875 237 Z M 114.5625 244.917969 C 108.503906 239.535156 100.945312 236.125 92.777344 234.828125 C 104.355469 232.863281 115.808594 234.800781 125.917969 240.632812 C 124.753906 241.96875 123.882812 243.667969 123.457031 245.703125 C 122.34375 251.023438 124.480469 258.054688 131.839844 260.941406 C 133.328125 261.503906 134.871094 261.777344 136.433594 261.777344 C 137.128906 261.777344 137.824219 261.707031 138.515625 261.59375 C 139.027344 266.019531 138.785156 270.238281 137.769531 273.929688 C 136.414062 278.640625 133.988281 282.214844 130.570312 284.527344 C 128.386719 286.003906 125.832031 286.921875 122.929688 287.253906 C 118.320312 287.863281 114.101562 285.867188 112.058594 282.136719 C 111.257812 280.761719 110.480469 278.578125 111.34375 275.9375 C 112.410156 272.640625 114.839844 272.472656 115.558594 272.574219 C 116.640625 272.632812 118 273.21875 118.292969 274.667969 C 118.617188 276.253906 119.996094 277.398438 121.613281 277.417969 C 123.164062 277.105469 124.640625 276.332031 125.003906 274.761719 C 127.464844 264.074219 123.5625 252.921875 114.5625 244.917969 Z M 46.152344 244.207031 C 64.1875 224.351562 91.242188 218.492188 109.113281 223.109375 C 116.117188 224.914062 121.554688 228.148438 125.101562 232.519531 C 107.222656 224.226562 85.867188 225.875 67.046875 237.597656 C 67.035156 237.601562 67.015625 237.601562 67 237.617188 C 66.988281 237.621094 66.980469 237.636719 66.96875 237.640625 C 66.941406 237.65625 66.921875 237.667969 66.894531 237.679688 C 66.890625 237.679688 66.890625 237.6875 66.882812 237.6875 C 66.84375 237.714844 66.796875 237.726562 66.757812 237.753906 C 60.535156 241.660156 54.796875 246.511719 49.617188 252.191406 C 48.355469 249.511719 47.199219 246.851562 46.152344 244.207031 Z M 56.792969 265.644531 C 55.527344 263.542969 54.253906 261.28125 52.929688 258.792969 C 58.074219 252.777344 63.867188 247.707031 70.1875 243.707031 C 87.457031 237.640625 102.066406 242.980469 110.003906 250.042969 C 115.199219 254.664062 118.222656 260.34375 118.785156 266.28125 C 117.894531 265.972656 116.941406 265.78125 115.953125 265.722656 C 110.992188 265.429688 106.515625 268.609375 104.820312 273.8125 C 103.941406 276.503906 103.902344 279.308594 104.617188 281.945312 C 102.96875 282.347656 101.460938 282.253906 100.207031 281.683594 C 100.152344 281.652344 100.101562 281.625 100.050781 281.601562 C 97.84375 280.46875 96.4375 277.835938 96.632812 275.132812 C 96.75 273.570312 97.515625 270.742188 101.429688 269.507812 C 102.40625 269.199219 103.195312 268.472656 103.582031 267.515625 C 103.960938 266.566406 103.902344 265.496094 103.414062 264.597656 C 100.121094 258.5625 93.359375 254.859375 84.851562 254.429688 C 76.148438 253.996094 64.65625 257.359375 56.792969 265.644531 Z M 60.613281 271.671875 C 66.910156 264.007812 76.910156 260.886719 84.511719 261.285156 C 88.929688 261.503906 92.621094 262.84375 95.121094 265.0625 C 92 267.300781 90.074219 270.664062 89.789062 274.644531 C 89.742188 275.355469 89.75 276.0625 89.800781 276.765625 C 80.246094 273.15625 71.234375 272.40625 62.511719 274.460938 C 61.863281 273.550781 61.234375 272.621094 60.613281 271.671875 Z M 68.179688 282.039062 C 82.765625 284.957031 97.902344 302.488281 110.449219 316.992188 C 111.527344 318.242188 112.59375 319.464844 113.648438 320.675781 C 96.15625 310.972656 80.71875 297.871094 68.179688 282.039062 Z M 130.839844 328.910156 C 126.371094 324.898438 121.15625 318.882812 115.632812 312.496094 C 106.535156 301.980469 96.121094 289.957031 85.023438 282.359375 C 88.882812 283.609375 92.871094 285.402344 97 287.746094 C 106.644531 293.195312 117.261719 301.644531 130.386719 314.316406 C 140.90625 324.484375 150.40625 332.003906 159.492188 337.234375 C 149.71875 335.414062 140.144531 332.640625 130.839844 328.910156 Z M 194.785156 339.648438 L 194.785156 339.632812 C 193.761719 339.695312 192.664062 339.753906 191.480469 339.765625 L 191.460938 339.765625 C 173.765625 339.523438 156.925781 330.433594 135.152344 309.386719 C 128.871094 303.320312 123.125 298.191406 117.757812 293.851562 C 118.910156 294.074219 120.085938 294.222656 121.296875 294.222656 C 122.109375 294.222656 122.929688 294.171875 123.757812 294.066406 C 126.800781 293.714844 129.617188 292.855469 132.175781 291.527344 C 133.832031 292.921875 135.984375 294.8125 138.554688 297.082031 C 148.0625 305.441406 163.960938 319.433594 179.910156 329.996094 L 180.601562 330.460938 C 185.636719 333.816406 190.535156 337.082031 195.445312 339.632812 C 195.25 339.632812 195.027344 339.640625 194.785156 339.648438 Z M 212.628906 337.761719 C 203.742188 337.652344 194.777344 331.671875 184.40625 324.753906 L 183.710938 324.28125 C 168.136719 313.972656 153.0625 300.710938 143.089844 291.933594 C 141.089844 290.167969 139.328125 288.621094 137.84375 287.347656 C 139.78125 285.375 141.394531 283.027344 142.660156 280.351562 C 154.6875 289.597656 174.425781 304.425781 192.125 316.152344 C 206.734375 325.832031 219.582031 331.558594 231.191406 333.457031 C 225.117188 335.277344 218.917969 336.730469 212.628906 337.761719 Z M 257.292969 322.882812 C 257.28125 322.894531 257.269531 322.902344 257.25 322.90625 C 257.222656 322.921875 257.195312 322.941406 257.171875 322.953125 C 257.046875 323.023438 256.914062 323.089844 256.789062 323.164062 C 256.175781 323.503906 255.554688 323.816406 254.9375 324.125 C 254.742188 324.210938 254.519531 324.316406 254.480469 324.335938 C 238.828125 330.949219 220.214844 326.546875 195.921875 310.433594 C 177.410156 298.171875 156.605469 282.449219 144.921875 273.4375 C 145.828125 268.882812 145.867188 263.878906 145.054688 258.742188 C 145.890625 258.09375 146.65625 257.328125 147.382812 256.515625 C 148.226562 257.40625 149.085938 258.28125 149.949219 259.121094 C 150.066406 259.25 150.183594 259.375 150.316406 259.480469 C 151.246094 260.410156 152.175781 261.339844 153.167969 262.261719 C 153.183594 262.273438 153.195312 262.289062 153.207031 262.300781 C 156.75 265.597656 160.136719 268.484375 163.574219 271.136719 C 163.664062 271.214844 163.738281 271.28125 163.847656 271.363281 C 197.210938 301.554688 221.941406 316.9375 241.671875 319.773438 C 244.074219 320.121094 246.28125 320.277344 248.304688 320.269531 C 258.539062 320.269531 264.101562 316.238281 267.019531 312.683594 C 265.355469 316.460938 262.308594 320.203125 257.292969 322.882812 Z M 274.335938 312.652344 C 275.382812 309.289062 275.683594 305.992188 275.429688 303.164062 C 274.8125 296.265625 271.148438 291.078125 265.757812 289.269531 C 265.71875 289.257812 265.679688 289.238281 265.636719 289.222656 C 265.636719 289.222656 265.632812 289.222656 265.632812 289.222656 C 263.601562 288.484375 261.234375 288.269531 258.761719 288.628906 C 257.472656 288.820312 256.40625 289.707031 255.992188 290.9375 C 255.585938 292.175781 255.90625 293.535156 256.824219 294.453125 C 257.71875 295.355469 257.648438 296.847656 257.171875 297.929688 C 256.804688 298.753906 255.761719 300.558594 252.511719 300.539062 C 249.453125 300.375 247.097656 297.273438 246.894531 293.085938 C 246.730469 290.792969 247.339844 288.394531 248.566406 286.371094 C 249.09375 285.734375 249.546875 285.128906 249.886719 284.546875 L 250.601562 283.78125 C 256.882812 277.628906 268.511719 276.535156 277.640625 281.226562 C 277.738281 281.28125 277.835938 281.304688 277.933594 281.34375 C 282.660156 283.8125 288.65625 288.796875 291.558594 298.726562 C 286.136719 303.8125 280.390625 308.457031 274.335938 312.652344 Z M 296.894531 293.328125 C 294.375 286.953125 290.394531 281.679688 285.238281 277.894531 C 315.414062 253.269531 312.625 220.246094 307.320312 204.070312 C 307.371094 204.097656 307.421875 204.117188 307.484375 204.136719 C 313.339844 206.820312 317.730469 214.050781 319.53125 223.984375 C 322.886719 242.570312 317.140625 270.46875 296.894531 293.328125 Z M 329.542969 242.519531 C 329.515625 242.601562 329.503906 242.695312 329.484375 242.785156 C 328.183594 246.148438 326.753906 249.449219 325.230469 252.679688 C 327.613281 241.726562 327.828125 231.347656 326.269531 222.765625 C 324.738281 214.265625 321.578125 207.433594 317.128906 202.800781 C 318.835938 201.859375 320.347656 200.496094 321.460938 198.777344 C 323.023438 196.378906 323.535156 193.75 323.019531 191.261719 C 323.6875 191.519531 324.261719 191.878906 324.628906 192.128906 C 330.230469 196.019531 338.484375 211.5625 329.542969 242.519531 Z M 328.535156 186.492188 C 324.234375 183.519531 319.378906 183.292969 315.847656 185.917969 C 315.0625 186.5 314.558594 187.382812 314.472656 188.359375 C 314.386719 189.324219 314.714844 190.292969 315.375 191.007812 C 316.535156 192.246094 316.652344 193.605469 315.714844 195.03125 C 314.660156 196.667969 312.371094 197.972656 310.152344 197.226562 C 306.332031 195.910156 303.96875 192.808594 303.675781 188.699219 C 303.3125 183.660156 306.273438 178.757812 311.292969 176.179688 C 312.683594 175.433594 314.238281 174.863281 316.042969 174.449219 C 322.390625 172.984375 334.050781 174.726562 339.734375 182.800781 C 339.792969 184.398438 339.835938 185.960938 339.835938 187.570312 C 339.835938 193.226562 339.496094 198.816406 338.886719 204.34375 C 336.953125 195.796875 333.164062 189.699219 328.535156 186.492188 Z M 144.597656 203.933594 C 145.222656 204.417969 145.957031 204.652344 146.695312 204.652344 C 147.71875 204.652344 148.730469 204.195312 149.40625 203.316406 C 150.5625 201.824219 150.289062 199.664062 148.789062 198.507812 C 148.167969 198.03125 147.800781 197.671875 147.730469 197.609375 C 146.410156 196.300781 144.253906 196.300781 142.921875 197.625 C 141.578125 198.960938 141.574219 201.132812 142.894531 202.472656 C 142.894531 202.472656 143.496094 203.082031 144.597656 203.933594 " fill-opacity="1" fill-rule="nonzero"/></g></svg>